<svg xmlns="http://www.w3.org/2000/svg" viewBox="0 0 640 320" width="640" height="320" role="img" aria-label="Plot of 4 sin(x) + 5 cos(x/2)"><rect width="640" height="320" fill="#fbfaf7"/><line x1="20" y1="20" x2="20" y2="300" stroke="#e5e7eb" stroke-width="1"/><line x1="170" y1="20" x2="170" y2="300" stroke="#e5e7eb" stroke-width="1"/><line x1="320" y1="20" x2="320" y2="300" stroke="#e5e7eb" stroke-width="1"/><line x1="470" y1="20" x2="470" y2="300" stroke="#e5e7eb" stroke-width="1"/><line x1="620" y1="20" x2="620" y2="300" stroke="#e5e7eb" stroke-width="1"/><line x1="20" y1="284" x2="620" y2="284" stroke="#e5e7eb" stroke-width="1"/><line x1="20" y1="222" x2="620" y2="222" stroke="#e5e7eb" stroke-width="1"/><line x1="20" y1="160" x2="620" y2="160" stroke="#e5e7eb" stroke-width="1"/><line x1="20" y1="98" x2="620" y2="98" stroke="#e5e7eb" stroke-width="1"/><line x1="20" y1="36" x2="620" y2="36" stroke="#e5e7eb" stroke-width="1"/><line x1="20" y1="160" x2="620" y2="160" stroke="#94a3b8" stroke-width="1"/><line x1="320" y1="20" x2="320" y2="300" stroke="#94a3b8" stroke-width="1"/><path d="M20.00 104.09 L21.50 108.62 L23.01 113.25 L24.51 117.96 L26.02 122.74 L27.52 127.59 L29.02 132.50 L30.53 137.45 L32.03 142.45 L33.53 147.48 L35.04 152.53 L36.54 157.59 L38.05 162.66 L39.55 167.72 L41.05 172.77 L42.56 177.80 L44.06 182.79 L45.56 187.74 L47.07 192.65 L48.57 197.50 L50.08 202.28 L51.58 206.98 L53.08 211.60 L54.59 216.13 L56.09 220.56 L57.59 224.89 L59.10 229.09 L60.60 233.18 L62.11 237.14 L63.61 240.97 L65.11 244.65 L66.62 248.19 L68.12 251.57 L69.62 254.80 L71.13 257.86 L72.63 260.76 L74.14 263.48 L75.64 266.03 L77.14 268.40 L78.65 270.59 L80.15 272.59 L81.65 274.41 L83.16 276.04 L84.66 277.47 L86.17 278.72 L87.67 279.78 L89.17 280.64 L90.68 281.31 L92.18 281.79 L93.68 282.09 L95.19 282.19 L96.69 282.11 L98.20 281.84 L99.70 281.39 L101.20 280.76 L102.71 279.96 L104.21 278.99 L105.71 277.84 L107.22 276.54 L108.72 275.08 L110.23 273.46 L111.73 271.70 L113.23 269.80 L114.74 267.75 L116.24 265.58 L117.74 263.29 L119.25 260.88 L120.75 258.36 L122.26 255.74 L123.76 253.02 L125.26 250.21 L126.77 247.32 L128.27 244.36 L129.77 241.33 L131.28 238.25 L132.78 235.11 L134.29 231.93 L135.79 228.72 L137.29 225.48 L138.80 222.23 L140.30 218.96 L141.80 215.69 L143.31 212.42 L144.81 209.17 L146.32 205.93 L147.82 202.72 L149.32 199.55 L150.83 196.42 L152.33 193.33 L153.83 190.30 L155.34 187.33 L156.84 184.42 L158.35 181.59 L159.85 178.83 L161.35 176.16 L162.86 173.58 L164.36 171.09 L165.86 168.69 L167.37 166.40 L168.87 164.21 L170.38 162.14 L171.88 160.17 L173.38 158.31 L174.89 156.58 L176.39 154.96 L177.89 153.46 L179.40 152.09 L180.90 150.83 L182.41 149.70 L183.91 148.69 L185.41 147.80 L186.92 147.04 L188.42 146.39 L189.92 145.87 L191.43 145.46 L192.93 145.17 L194.44 144.99 L195.94 144.93 L197.44 144.97 L198.95 145.11 L200.45 145.36 L201.95 145.70 L203.46 146.14 L204.96 146.66 L206.47 147.27 L207.97 147.96 L209.47 148.71 L210.98 149.54 L212.48 150.43 L213.98 151.37 L215.49 152.37 L216.99 153.40 L218.50 154.48 L220.00 155.59 L221.50 156.72 L223.01 157.87 L224.51 159.04 L226.02 160.20 L227.52 161.37 L229.02 162.53 L230.53 163.68 L232.03 164.80 L233.53 165.90 L235.04 166.96 L236.54 167.99 L238.05 168.96 L239.55 169.89 L241.05 170.76 L242.56 171.56 L244.06 172.29 L245.56 172.95 L247.07 173.53 L248.57 174.02 L250.08 174.43 L251.58 174.74 L253.08 174.95 L254.59 175.06 L256.09 175.06 L257.59 174.96 L259.10 174.74 L260.60 174.41 L262.11 173.96 L263.61 173.40 L265.11 172.71 L266.62 171.90 L268.12 170.97 L269.62 169.92 L271.13 168.75 L272.63 167.45 L274.14 166.03 L275.64 164.49 L277.14 162.83 L278.65 161.05 L280.15 159.16 L281.65 157.15 L283.16 155.03 L284.66 152.81 L286.17 150.48 L287.67 148.05 L289.17 145.53 L290.68 142.91 L292.18 140.21 L293.68 137.43 L295.19 134.57 L296.69 131.64 L298.20 128.65 L299.70 125.60 L301.20 122.49 L302.71 119.34 L304.21 116.16 L305.71 112.94 L307.22 109.70 L308.72 106.44 L310.23 103.17 L311.73 99.90 L313.23 96.63 L314.74 93.38 L316.24 90.15 L317.74 86.95 L319.25 83.79 L320.75 80.67 L322.26 77.60 L323.76 74.60 L325.26 71.66 L326.77 68.80 L328.27 66.02 L329.77 63.34 L331.28 60.75 L332.78 58.26 L334.29 55.89 L335.79 53.64 L337.29 51.52 L338.80 49.52 L340.30 47.67 L341.80 45.96 L343.31 44.39 L344.81 42.99 L346.32 41.74 L347.82 40.66 L349.32 39.74 L350.83 39.00 L352.33 38.43 L353.83 38.05 L355.34 37.84 L356.84 37.83 L358.35 38.00 L359.85 38.35 L361.35 38.90 L362.86 39.64 L364.36 40.57 L365.86 41.69 L367.37 43.01 L368.87 44.51 L370.38 46.21 L371.88 48.09 L373.38 50.16 L374.89 52.41 L376.39 54.84 L377.89 57.45 L379.40 60.24 L380.90 63.19 L382.41 66.31 L383.91 69.59 L385.41 73.03 L386.92 76.62 L388.42 80.35 L389.92 84.23 L391.43 88.23 L392.93 92.36 L394.44 96.61 L395.94 100.98 L397.44 105.44 L398.95 110.00 L400.45 114.66 L401.95 119.39 L403.46 124.19 L404.96 129.06 L406.47 133.98 L407.97 138.95 L409.47 143.96 L410.98 148.99 L412.48 154.05 L413.98 159.11 L415.49 164.18 L416.99 169.24 L418.50 174.28 L420.00 179.30 L421.50 184.29 L423.01 189.23 L424.51 194.11 L426.02 198.94 L427.52 203.70 L429.02 208.38 L430.53 212.97 L432.03 217.47 L433.53 221.87 L435.04 226.16 L436.54 230.34 L438.05 234.39 L439.55 238.31 L441.05 242.09 L442.56 245.73 L444.06 249.22 L445.56 252.56 L447.07 255.74 L448.57 258.75 L450.08 261.59 L451.58 264.27 L453.08 266.76 L454.59 269.08 L456.09 271.21 L457.59 273.16 L459.10 274.92 L460.60 276.49 L462.11 277.87 L463.61 279.06 L465.11 280.06 L466.62 280.86 L468.12 281.48 L469.62 281.90 L471.13 282.14 L472.63 282.18 L474.14 282.04 L475.64 281.72 L477.14 281.22 L478.65 280.54 L480.15 279.68 L481.65 278.66 L483.16 277.47 L484.66 276.12 L486.17 274.61 L487.67 272.95 L489.17 271.14 L490.68 269.20 L492.18 267.12 L493.68 264.91 L495.19 262.58 L496.69 260.13 L498.20 257.58 L499.70 254.93 L501.20 252.18 L502.71 249.35 L504.21 246.44 L505.71 243.45 L507.22 240.41 L508.72 237.31 L510.23 234.16 L511.73 230.97 L513.23 227.75 L514.74 224.51 L516.24 221.24 L517.74 217.98 L519.25 214.70 L520.75 211.44 L522.26 208.19 L523.76 204.96 L525.26 201.77 L526.77 198.60 L528.27 195.48 L529.77 192.41 L531.28 189.40 L532.78 186.45 L534.29 183.56 L535.79 180.75 L537.29 178.02 L538.80 175.37 L540.30 172.82 L541.80 170.36 L543.31 167.99 L544.81 165.73 L546.32 163.58 L547.82 161.53 L549.32 159.60 L550.83 157.78 L552.33 156.08 L553.83 154.50 L555.34 153.03 L556.84 151.69 L558.35 150.48 L559.85 149.38 L561.35 148.41 L562.86 147.56 L564.36 146.83 L565.86 146.22 L567.37 145.73 L568.87 145.36 L570.38 145.11 L571.88 144.96 L573.38 144.93 L574.89 145.00 L576.39 145.18 L577.89 145.45 L579.40 145.83 L580.90 146.29 L582.41 146.84 L583.91 147.47 L585.41 148.18 L586.92 148.96 L588.42 149.80 L589.92 150.71 L591.43 151.67 L592.93 152.67 L594.44 153.72 L595.94 154.81 L597.44 155.93 L598.95 157.07 L600.45 158.22 L601.95 159.39 L603.46 160.56 L604.96 161.72 L606.47 162.88 L607.97 164.02 L609.47 165.14 L610.98 166.22 L612.48 167.28 L613.98 168.29 L615.49 169.25 L616.99 170.16 L618.50 171.01 L620.00 171.79" fill="none" stroke="#0e7c86" stroke-width="2"/><text x="612" y="154" text-anchor="end" font-family="ui-monospace, monospace" font-size="12" fill="#475569">y = 4 sin(x) + 5 cos(x/2)</text></svg>